<svg width="25" height="24" viewBox="0 0 25 24" fill="none" xmlns="http://www.w3.org/2000/svg">
<path opacity="0.2" d="M16.3686 2H7.98859C4.34859 2 2.17859 4.17 2.17859 7.81V16.18C2.17859 19.83 4.34859 22 7.98859 22H16.3586C19.9986 22 22.1686 19.83 22.1686 16.19V7.81C22.1786 4.17 20.0086 2 16.3686 2Z" fill="#5030E5"/>
<path d="M16.1786 11.25H12.9286V8C12.9286 7.59 12.5886 7.25 12.1786 7.25C11.7686 7.25 11.4286 7.59 11.4286 8V11.25H8.17859C7.76859 11.25 7.42859 11.59 7.42859 12C7.42859 12.41 7.76859 12.75 8.17859 12.75H11.4286V16C11.4286 16.41 11.7686 16.75 12.1786 16.75C12.5886 16.75 12.9286 16.41 12.9286 16V12.75H16.1786C16.5886 12.75 16.9286 12.41 16.9286 12C16.9286 11.59 16.5886 11.25 16.1786 11.25Z" fill="#5030E5"/>
</svg>
